<?xml version="1.0" standalone="no"?>
<!DOCTYPE svg PUBLIC "-//W3C//DTD SVG 20010904//EN"
 "http://www.w3.org/TR/2001/REC-SVG-20010904/DTD/svg10.dtd">
<svg version="1.0" xmlns="http://www.w3.org/2000/svg"
 width="1232.000000pt" height="1232.000000pt" viewBox="0 0 1232.000000 1232.000000"
 preserveAspectRatio="xMidYMid meet">

<g transform="translate(0.000000,1232.000000) scale(0.100000,-0.100000)"
fill="#000000" stroke="none">
<path d="M0 6160 l0 -6160 6160 0 6160 0 0 6160 0 6160 -6160 0 -6160 0 0
-6160z m6461 5709 c467 -278 758 -450 1224 -724 204 -120 451 -266 550 -325
99 -59 286 -169 415 -245 129 -76 327 -193 440 -260 228 -136 479 -284 830
-490 129 -76 300 -177 380 -225 140 -83 223 -132 265 -155 31 -17 260 -152
360 -213 50 -30 104 -63 121 -72 17 -10 41 -24 53 -31 l21 -14 0 -2871 0
-2872 -32 -24 c-18 -13 -67 -44 -108 -68 -41 -24 -86 -50 -100 -59 -14 -9 -34
-21 -45 -27 -36 -20 -88 -50 -195 -114 -58 -35 -118 -71 -135 -80 -54 -32
-197 -116 -400 -235 -110 -65 -236 -139 -280 -165 -44 -26 -111 -66 -150 -90
-38 -23 -90 -54 -115 -68 -25 -14 -115 -67 -200 -117 -85 -51 -207 -122 -270
-160 -63 -37 -171 -101 -240 -142 -69 -41 -132 -79 -140 -83 -8 -5 -73 -44
-145 -86 -71 -42 -143 -85 -160 -94 -16 -10 -79 -46 -140 -82 -60 -36 -198
-117 -305 -180 -107 -63 -229 -135 -270 -160 -100 -59 -350 -207 -423 -249
-33 -19 -73 -43 -91 -54 -55 -33 -284 -169 -313 -185 -16 -8 -66 -38 -113 -66
-47 -28 -152 -91 -235 -140 -82 -49 -157 -93 -166 -99 -60 -37 -117 -63 -125
-55 -5 4 -79 48 -164 98 -85 49 -192 112 -238 140 -46 29 -85 52 -87 52 -2 0
-70 40 -152 88 -129 78 -337 200 -428 252 -16 9 -64 38 -105 63 -41 25 -118
70 -170 101 -52 31 -139 82 -192 113 -104 62 -363 214 -414 243 -17 10 -62 37
-100 60 -38 23 -85 52 -105 64 -87 50 -355 208 -369 216 -68 41 -411 244
-1025 606 -104 61 -302 178 -440 259 -401 237 -520 307 -703 415 l-172 102 0
2876 0 2877 33 21 c32 21 342 204 567 334 63 37 171 101 240 142 69 42 242
144 385 228 143 84 292 172 330 195 39 23 138 82 220 130 83 48 170 100 195
115 25 15 124 74 220 130 96 57 245 145 331 196 85 51 171 101 190 112 19 11
106 62 194 114 192 114 608 359 870 513 105 62 213 126 240 142 96 59 450 268
460 272 6 2 38 22 73 43 34 21 64 38 66 38 6 0 191 113 215 131 13 11 33 19
45 19 12 0 114 -55 227 -121z"/>
<path d="M6105 11361 c-71 -43 -206 -123 -300 -178 -93 -55 -271 -160 -395
-233 -257 -151 -317 -187 -415 -245 -38 -23 -126 -75 -195 -115 -69 -40 -156
-92 -195 -115 -38 -23 -146 -87 -240 -142 -243 -143 -753 -444 -1010 -596
-121 -71 -308 -182 -415 -245 -107 -63 -215 -127 -240 -142 -25 -15 -110 -65
-190 -112 -80 -47 -228 -135 -330 -195 -258 -153 -283 -167 -303 -175 -9 -4
-22 -19 -27 -33 -14 -36 -14 -5169 0 -5195 5 -10 40 -35 77 -55 38 -21 127
-73 198 -115 72 -42 220 -130 330 -195 110 -65 310 -183 445 -263 135 -80 331
-195 435 -257 105 -61 300 -177 435 -257 271 -160 532 -314 835 -493 110 -64
281 -165 380 -224 99 -59 397 -235 663 -392 265 -156 507 -299 537 -317 l56
-33 52 32 c29 18 72 43 97 57 25 13 61 34 80 47 19 12 103 62 185 110 83 48
174 103 202 121 29 19 55 34 57 34 2 0 64 36 137 80 73 44 134 80 137 80 3 0
26 13 51 29 73 45 307 184 338 201 15 8 84 49 153 90 69 41 134 80 145 86 11
6 94 55 185 109 349 207 388 230 505 298 66 38 174 102 240 141 66 40 154 92
195 116 41 24 129 76 195 116 66 39 136 81 155 92 19 11 109 64 200 117 91 54
228 135 305 180 77 45 203 119 280 165 77 45 154 90 170 100 17 9 62 36 100
60 68 42 93 56 173 101 20 12 43 26 50 31 9 8 12 542 12 2607 0 1428 -4 2602
-8 2609 -5 7 -40 28 -78 47 -71 36 -100 52 -169 95 -22 14 -52 32 -66 40 -14
8 -70 42 -125 74 -54 32 -187 111 -294 174 -107 63 -292 172 -410 242 -118 70
-278 165 -355 210 -77 46 -153 91 -170 100 -16 9 -91 53 -165 97 -74 44 -252
149 -395 233 -143 84 -303 178 -355 210 -52 31 -151 90 -220 130 -69 40 -145
85 -170 100 -25 15 -110 66 -190 112 -80 47 -183 108 -230 136 -47 28 -125 74
-175 103 -111 65 -456 269 -667 395 -87 52 -159 94 -160 94 -2 0 -61 -36 -133
-79z m-65 -4451 c215 -36 195 -28 352 -137 107 -75 107 -75 93 -102 -7 -14
-38 -51 -69 -81 l-56 -54 -27 26 c-36 33 -150 110 -187 127 -37 15 -228 51
-277 51 -20 0 -69 -7 -109 -16 -125 -29 -207 -112 -217 -221 -7 -80 9 -125 60
-167 73 -58 103 -70 507 -193 161 -49 304 -146 373 -253 20 -31 57 -176 57
-223 0 -77 -32 -179 -78 -246 -67 -99 -88 -118 -192 -170 -84 -42 -109 -50
-223 -66 -111 -16 -142 -17 -245 -7 -148 15 -259 53 -351 120 -36 27 -94 68
-128 93 -34 24 -62 48 -62 53 -1 7 58 81 115 145 10 11 22 4 66 -41 56 -56
179 -127 264 -153 25 -7 86 -19 136 -26 79 -12 100 -11 176 5 145 29 230 83
278 178 29 58 30 96 3 176 -16 48 -30 70 -62 96 -56 45 -130 81 -229 111 -46
14 -114 35 -153 46 -262 79 -356 125 -437 214 -30 33 -62 74 -71 90 -14 28
-19 46 -31 128 -6 33 7 119 29 193 24 82 108 181 197 230 162 91 291 110 498
74z m-3138 -11 c13 -6 30 -25 39 -43 9 -18 101 -147 204 -287 104 -140 238
-321 298 -404 61 -82 143 -193 182 -245 39 -52 103 -140 142 -196 40 -55 81
-108 93 -119 l20 -18 0 661 0 662 93 0 c60 0 98 -4 108 -12 12 -11 13 -130 9
-853 l-5 -840 -100 -2 -100 -3 -45 64 c-41 59 -384 529 -540 741 -37 50 -130
178 -208 285 -198 272 -184 257 -193 234 -4 -11 -8 -309 -8 -663 -1 -354 -4
-648 -7 -652 -3 -5 -48 -9 -99 -9 -80 0 -95 3 -102 18 -4 9 -7 394 -5 855 l2
837 100 0 c54 0 109 -5 122 -11z m1908 -838 c0 -464 -3 -847 -6 -852 -7 -12
-191 -11 -199 0 -7 13 -7 1680 1 1692 3 5 50 8 105 7 l100 -3 -1 -844z m2981
834 c105 -20 128 -28 210 -80 48 -31 78 -61 114 -111 66 -94 82 -135 96 -241
34 -256 -96 -469 -332 -542 -41 -13 -78 -27 -83 -32 -9 -8 330 -529 400 -616
57 -69 52 -73 -88 -73 l-123 0 -30 48 c-56 89 -374 587 -390 610 -15 21 -21
22 -180 22 -91 0 -166 -1 -167 -2 -1 -2 -5 -154 -8 -338 l-5 -335 -97 -3 c-85
-2 -98 -1 -105 15 -4 10 -7 395 -5 856 l2 837 354 0 c275 0 372 -3 437 -15z
m1664 7 c6 -4 24 -47 42 -97 17 -49 67 -178 111 -285 44 -107 173 -427 287
-710 114 -283 216 -532 226 -552 19 -37 19 -37 0 -48 -11 -5 -65 -10 -121 -10
l-101 0 -24 53 c-14 28 -25 57 -25 63 0 13 -99 246 -109 257 -4 4 -194 8 -422
8 l-414 1 -41 -94 c-23 -51 -54 -129 -69 -173 -41 -117 -38 -115 -170 -115
-61 0 -114 3 -118 6 -3 4 2 23 12 43 11 20 45 102 76 181 31 80 71 181 89 225
19 44 100 244 180 445 80 201 168 421 197 490 28 69 59 148 69 175 10 28 27
71 39 98 l20 47 128 0 c70 0 133 -4 138 -8z"/>
<path d="M7240 6711 l-25 -7 -3 -309 c-1 -194 1 -312 8 -319 11 -11 398 -12
494 -1 108 13 201 78 254 179 23 45 26 62 25 139 -3 179 -91 280 -270 312 -82
15 -436 19 -483 6z"/>
<path d="M9302 6645 c-7 -14 -12 -30 -12 -36 0 -5 -73 -192 -162 -415 -99
-249 -158 -408 -152 -414 10 -10 682 -15 692 -5 4 4 -3 32 -15 63 -66 173
-109 284 -168 437 -65 165 -93 237 -131 339 -22 58 -36 66 -52 31z"/>
</g>
</svg>
